<svg width="87" height="36" viewBox="0 0 87 36" fill="none" xmlns="http://www.w3.org/2000/svg">
<path d="M24.714 0.96V35H17.63L17.86 31.55C16.1733 34.1567 13.674 35.46 10.362 35.46C8.27667 35.46 6.498 34.9847 5.026 34.034C3.554 33.0833 2.43467 31.7647 1.668 30.078C0.901333 28.3913 0.518 26.4593 0.518 24.282C0.518 21.6753 1.05467 19.3907 2.128 17.428C3.20133 15.4653 4.64267 13.9473 6.452 12.874C8.26133 11.77 10.2853 11.218 12.524 11.218C13.5667 11.218 14.5327 11.3713 15.422 11.678C16.3113 11.9847 17.078 12.414 17.722 12.966L17.676 11.586V0.96H24.714ZM13.214 17.336C11.5273 17.336 10.1933 17.9647 9.212 19.222C8.26133 20.4793 7.786 22.0893 7.786 24.052C7.786 25.7387 8.154 27.042 8.89 27.962C9.65667 28.882 10.684 29.342 11.972 29.342C13.536 29.342 14.87 28.698 15.974 27.41C17.1087 26.122 17.676 24.4353 17.676 22.35C17.676 20.786 17.2773 19.5593 16.48 18.67C15.6827 17.7807 14.594 17.336 13.214 17.336ZM41.6955 35.46C39.0889 35.46 36.8349 34.9847 34.9335 34.034C33.0322 33.0527 31.5602 31.688 30.5175 29.94C29.4749 28.1613 28.9535 26.0607 28.9535 23.638C28.9535 21.1847 29.4749 19.0227 30.5175 17.152C31.5909 15.2813 33.0169 13.8247 34.7955 12.782C36.6049 11.7393 38.6442 11.218 40.9135 11.218C43.4895 11.218 45.5902 11.8007 47.2155 12.966C48.8409 14.1313 49.9602 15.7873 50.5735 17.934C51.2175 20.05 51.3555 22.5187 50.9875 25.34H36.1295C36.3135 26.5053 36.9269 27.4867 37.9695 28.284C39.0122 29.0507 40.4382 29.434 42.2475 29.434C43.0755 29.434 43.9495 29.2653 44.8695 28.928C45.7895 28.56 46.5715 28.0233 47.2155 27.318L51.1255 31.458C50.1135 32.6847 48.8562 33.666 47.3535 34.402C45.8815 35.1073 43.9955 35.46 41.6955 35.46ZM41.0515 16.324C39.8249 16.324 38.7822 16.692 37.9235 17.428C37.0955 18.164 36.5435 19.1913 36.2675 20.51H45.0535C45.0842 19.0687 44.7315 18.0107 43.9955 17.336C43.2902 16.6613 42.3089 16.324 41.0515 16.324ZM71.6347 11.586H78.6267L70.0247 35H59.9967L52.6367 11.586H60.2727L65.4247 29.204L71.6347 11.586ZM81.4895 35.46C80.0175 35.46 78.8522 35.0153 77.9935 34.126C77.1348 33.2367 76.7055 32.1327 76.7055 30.814C76.7055 29.4953 77.1348 28.3913 77.9935 27.502C78.8522 26.6127 80.0175 26.168 81.4895 26.168C82.9615 26.168 84.1268 26.6127 84.9855 27.502C85.8748 28.3913 86.3195 29.4953 86.3195 30.814C86.3195 32.1327 85.8748 33.2367 84.9855 34.126C84.1268 35.0153 82.9615 35.46 81.4895 35.46Z" fill="white"/>
</svg>
